<?xml version="1.0" encoding="UTF-8" standalone="no"?>
<svg width="900px" height="1024px" viewBox="0 0 900 1024" version="1.1" xmlns="http://www.w3.org/2000/svg" xmlns:xlink="http://www.w3.org/1999/xlink">
    <!-- Generator: Sketch 39.1 (31720) - http://www.bohemiancoding.com/sketch -->
    <title>Desktop Copy</title>
    <desc>Created with Sketch.</desc>
    <defs></defs>
    <g id="403" stroke="none" stroke-width="1" fill="none" fill-rule="evenodd">
        <g id="Desktop-Copy" fill="#D0011B">
            <path d="M506.863466,408.83713 L503.510912,408.83713 L503.510912,393.066459 C503.510912,363.897395 480.480309,339.530805 451.694794,339.010659 C450.908266,338.996447 449.336624,338.996447 448.550449,339.010659 C419.764228,339.530805 396.733978,363.897395 396.733978,393.066459 L396.733978,408.83713 L393.381071,408.83713 C388.214377,408.83713 384,414.195634 384,420.813646 L384,499.912866 C384,506.523416 388.214377,511.932016 393.381424,511.932016 L506.863466,511.932016 C512.03016,511.932016 516.24489,506.523416 516.24489,499.912866 L516.24489,420.813646 C516.24489,414.195989 512.030514,408.83713 506.863466,408.83713 L506.863466,408.83713 Z M460.754184,460.28296 L460.754184,484.183763 C460.754184,486.920572 458.47449,489.236717 455.749391,489.236717 L444.496206,489.236717 C441.770754,489.236717 439.49106,486.920572 439.49106,484.183763 L439.49106,460.28296 C436.847972,457.668016 435.309205,454.052216 435.309205,450.052346 C435.309205,442.472561 441.138704,435.95936 448.550803,435.658428 C449.336271,435.626452 450.90968,435.626452 451.695148,435.658428 C459.107247,435.95936 464.936746,442.472561 464.936746,450.052346 C464.936039,454.052216 463.397272,457.668016 460.754184,460.28296 L460.754184,460.28296 Z M481.413891,408.83713 L451.694794,408.83713 L448.550449,408.83713 L418.831353,408.83713 L418.831353,393.066459 C418.831353,375.690936 432.880689,361.32402 450.122445,361.32402 C467.364202,361.32402 481.414245,375.690936 481.414245,393.066459 L481.414245,408.83713 L481.413891,408.83713 Z" id="Shape"></path>
        </g>
    </g>
</svg>