<?xml version="1.0" encoding="UTF-8" standalone="no"?>
<svg width="900px" height="1024px" viewBox="0 0 900 1024" version="1.1" xmlns="http://www.w3.org/2000/svg" xmlns:xlink="http://www.w3.org/1999/xlink">
    <!-- Generator: Sketch 39.1 (31720) - http://www.bohemiancoding.com/sketch -->
    <title>Desktop Copy</title>
    <desc>Created with Sketch.</desc>
    <defs></defs>
    <g id="404" stroke="none" stroke-width="1" fill="none" fill-rule="evenodd">
        <g id="Desktop-Copy">
            <text id="404" font-family="Lato-Regular, Lato" font-size="288" font-weight="normal">
                <tspan x="199.680127" y="586" fill="#212121">4</tspan>
                <tspan x="366.720127" y="586" fill="#8BC34A">0</tspan>
                <tspan x="533.760127" y="586" fill="#212121">4</tspan>
            </text>
            <path d="M544.352068,362.258993 C527.86774,353.937403 524.938404,352.327275 525.000969,350.716405 C525.015408,350.354888 525.207114,349.850841 526.040515,349.499716 C527.679242,348.809343 529.257008,348.400316 530.783439,348.004651 C533.914908,347.192535 536.61965,346.491027 539.192043,343.636744 C540.407252,342.288661 541.750799,339.838951 543.306908,337.002484 C548.231914,328.025411 555.674767,314.459214 571.705097,310.892288 C574.370536,310.300646 577.06485,310 579.715851,310 C589.547412,310 598.511082,314.004905 605.636297,321.581189 C613.590099,330.038627 618.774991,342.284207 621.047391,357.979424 C623.899723,377.678803 654.869503,414.94483 673.372763,437.211208 C679.654149,444.769676 684.616052,450.739545 686.539531,453.703694 C693.643891,464.647959 707.06092,479.039633 717.842189,490.603749 C730.275822,503.941305 736.752925,511.024679 736.488226,513.675562 C736.436089,514.198167 736.158556,514.505494 735.934765,514.671035 C735.625949,514.899674 735.222484,515.015479 734.734796,515.015479 C730.772333,515.015479 717.530967,506.015393 705.272999,497.122204 C713.616631,505.236682 724.288812,516.25815 734.716348,527.028708 C737.944071,530.36254 741.11725,533.639213 744.142839,536.748117 C753.54607,546.411109 758.686844,554.599821 757.238219,557.610738 C756.870849,558.373859 756.120869,558.794764 755.127044,558.794764 C752.454387,558.794764 748.382033,555.804633 745.435854,553.295537 C740.10979,548.759119 736.978321,547.071046 735.782362,546.989389 C735.785571,547.327152 736.083157,548.310006 737.487665,550.212614 C740.660043,554.508514 741.93541,558.156355 740.900678,559.970625 C740.491598,560.688464 739.752045,561.084129 738.819182,561.084129 C736.854794,561.084129 734.03936,559.301037 730.890244,556.06742 C722.395814,547.345711 693.449778,522.494517 679.538644,510.553295 C675.682061,507.242475 673.091219,505.013239 672.452733,504.433474 C672.269048,504.373345 671.636979,504.251602 669.468854,504.251602 C667.786812,504.251602 665.496765,504.290946 662.844963,504.36221 C658.784641,504.472076 653.732099,504.562641 648.02182,504.562641 L648.017008,504.562641 C645.316276,504.562641 642.683725,504.527751 640.104113,504.46391 C639.984597,506.742883 640.180314,509.505116 641.050612,510.105666 C641.130824,510.160599 641.247131,510.228894 641.398731,510.318717 C642.395764,510.909617 644.731532,512.294816 648.306572,516.048069 C649.739155,517.552042 651.318526,519.606087 650.71052,520.852469 C650.491542,521.300841 650.024709,521.568082 649.46082,521.568082 L649.46082,521.568082 C648.780624,521.568082 647.960859,521.17984 647.154731,520.475363 C641.282424,515.348788 633.733691,512.408394 626.444042,512.408394 C625.341129,512.408394 624.238217,512.477431 623.164983,512.613279 C618.265646,513.233872 617.387326,513.584254 615.793518,514.219694 C615.064393,514.51069 614.157197,514.871466 612.676487,515.331714 C612.011531,515.537341 611.413953,515.213683 611.298448,514.643568 C611.021717,513.275443 614.064953,509.496951 616.552322,508.60392 C618.825524,507.78735 621.375458,507.373869 624.129129,507.373869 C627.00392,507.373869 629.545832,507.808135 631.401934,508.125855 C632.250575,508.271353 632.995742,508.398293 633.453752,508.42279 C633.520328,507.451072 633.487441,505.572961 633.446533,504.222651 C622.687723,503.700789 613.059899,502.574664 604.529374,500.824978 C598.503862,504.178111 592.945184,507.356795 592.380493,507.926167 C592.113388,508.262445 592.554553,509.809474 592.877004,510.93931 C593.277261,512.341583 593.729656,513.930183 593.837942,515.591532 C593.983927,517.830418 593.138495,519.746388 592.291458,520.578547 C591.912056,520.9512 591.511799,521.139754 591.101115,521.139754 C590.816363,521.139754 589.881093,521.026918 589.786443,519.570455 C589.647677,517.431041 586.350169,510.659449 583.770557,508.442833 C579.563448,504.82914 575.924238,504.495088 570.452189,504.685126 C566.036529,504.838048 562.693301,505.883257 561.086658,506.385819 C560.39443,506.602581 560.078396,506.701312 559.808082,506.701312 L559.808082,506.701312 C559.48563,506.701312 559.20168,506.554329 559.049278,506.307874 L558.833508,505.867668 L559.067727,505.4965 C559.617178,504.624255 562.658007,501.113746 567.495581,499.880726 C570.287755,499.168825 572.892232,498.80805 575.235219,498.80805 C579.747935,498.80805 582.477543,500.091549 584.470807,501.028378 C585.568104,501.545044 586.372629,501.941451 587.011917,501.827874 C587.939165,501.660106 590.865292,500.220716 594.438728,498.315881 C583.498639,495.062963 574.770793,490.524319 568.130859,484.658377 C534.510882,454.958243 536.149609,418.591186 543.444873,393.273805 C545.431719,386.378985 548.002508,381.380092 549.878662,377.730767 C553.855563,369.996365 555.055532,367.662459 544.352068,362.258993 L544.352068,362.258993" id="Shape" fill="#8BC34A"></path>
        </g>
    </g>
</svg>