<?xml version="1.0" encoding="UTF-8" standalone="no"?>
<svg width="143px" height="54px" viewBox="0 0 143 54" version="1.1" xmlns="http://www.w3.org/2000/svg" xmlns:xlink="http://www.w3.org/1999/xlink">
    <!-- Generator: Sketch 39.1 (31720) - http://www.bohemiancoding.com/sketch -->
    <title>Artboard 2</title>
    <desc>Created with Sketch.</desc>
    <defs>
        <rect id="path-1" x="1" y="1" width="141" height="52"></rect>
        <mask id="mask-2" maskContentUnits="userSpaceOnUse" maskUnits="objectBoundingBox" x="0" y="0" width="141" height="52" fill="white">
            <use xlink:href="#path-1"></use>
        </mask>
    </defs>
    <g id="Logo" stroke="none" stroke-width="1" fill="none" fill-rule="evenodd">
        <g id="Artboard-2">
            <path d="M19.982,21.512 L20.018,21.512 L20.018,11.324 L21.8,11.324 L21.8,24.068 L19.55,24.068 L12.818,13.664 L12.782,13.664 L12.782,24.068 L11,24.068 L11,11.324 L13.322,11.324 L19.982,21.512 Z M37.748,17.678 C37.748,18.6620049 37.5770017,19.5649959 37.235,20.387 C36.8929983,21.2090041 36.422003,21.916997 35.822,22.511 C35.221997,23.105003 34.5080041,23.5669983 33.68,23.897 C32.8519959,24.2270016 31.9520049,24.392 30.98,24.392 C30.0079951,24.392 29.1110041,24.2270016 28.289,23.897 C27.4669959,23.5669983 26.756003,23.105003 26.156,22.511 C25.555997,21.916997 25.0880017,21.2090041 24.752,20.387 C24.4159983,19.5649959 24.248,18.6620049 24.248,17.678 C24.248,16.681995 24.4159983,15.7730041 24.752,14.951 C25.0880017,14.1289959 25.555997,13.4270029 26.156,12.845 C26.756003,12.2629971 27.4669959,11.8100016 28.289,11.486 C29.1110041,11.1619984 30.0079951,11 30.98,11 C31.9520049,11 32.8519959,11.1619984 33.68,11.486 C34.5080041,11.8100016 35.221997,12.2629971 35.822,12.845 C36.422003,13.4270029 36.8929983,14.1289959 37.235,14.951 C37.5770017,15.7730041 37.748,16.681995 37.748,17.678 L37.748,17.678 Z M35.822,17.678 C35.822,16.9819965 35.7080011,16.3250031 35.48,15.707 C35.2519989,15.0889969 34.9280021,14.5460023 34.508,14.078 C34.0879979,13.6099977 33.581003,13.2410014 32.987,12.971 C32.392997,12.7009987 31.7240037,12.566 30.98,12.566 C30.2479963,12.566 29.585003,12.7009987 28.991,12.971 C28.396997,13.2410014 27.8930021,13.6099977 27.479,14.078 C27.0649979,14.5460023 26.7440011,15.0889969 26.516,15.707 C26.2879989,16.3250031 26.174,16.9819965 26.174,17.678 C26.174,18.3860035 26.2879989,19.0519969 26.516,19.676 C26.7440011,20.3000031 27.0679979,20.8429977 27.488,21.305 C27.9080021,21.7670023 28.4119971,22.1299987 29,22.394 C29.5880029,22.6580013 30.2479963,22.79 30.98,22.79 C31.7120037,22.79 32.377997,22.6580013 32.978,22.394 C33.578003,22.1299987 34.0879979,21.7670023 34.508,21.305 C34.9280021,20.8429977 35.2519989,20.3000031 35.48,19.676 C35.7080011,19.0519969 35.822,18.3860035 35.822,17.678 L35.822,17.678 Z M46.514,13.682 C46.2619987,13.3339983 45.9200022,13.0490011 45.488,12.827 C45.0559978,12.6049989 44.5700027,12.494 44.03,12.494 C43.7419986,12.494 43.4510015,12.5329996 43.157,12.611 C42.8629985,12.6890004 42.5960012,12.8149991 42.356,12.989 C42.1159988,13.1630009 41.9210008,13.3789987 41.771,13.637 C41.6209993,13.8950013 41.546,14.2039982 41.546,14.564 C41.546,14.9120017 41.6149993,15.2029988 41.753,15.437 C41.8910007,15.6710012 42.0769988,15.8689992 42.311,16.031 C42.5450012,16.1930008 42.8209984,16.3309994 43.139,16.445 C43.4570016,16.5590006 43.7959982,16.6759994 44.156,16.796 C44.5880022,16.9280007 45.0259978,17.0779992 45.47,17.246 C45.9140022,17.4140008 46.3159982,17.6359986 46.676,17.912 C47.0360018,18.1880014 47.3299989,18.5329979 47.558,18.947 C47.7860011,19.3610021 47.9,19.8859968 47.9,20.522 C47.9,21.1820033 47.7770012,21.7549976 47.531,22.241 C47.2849988,22.7270024 46.958002,23.1289984 46.55,23.447 C46.141998,23.7650016 45.6710027,24.0019992 45.137,24.158 C44.6029973,24.3140008 44.0540028,24.392 43.49,24.392 C42.685996,24.392 41.9090038,24.2360016 41.159,23.924 C40.4089963,23.6119984 39.7880025,23.1500031 39.296,22.538 L40.682,21.368 C40.9820015,21.8120022 41.3839975,22.1719986 41.888,22.448 C42.3920025,22.7240014 42.9379971,22.862 43.526,22.862 C43.8260015,22.862 44.1259985,22.8200004 44.426,22.736 C44.7260015,22.6519996 44.9989988,22.5200009 45.245,22.34 C45.4910012,22.1599991 45.6919992,21.9350013 45.848,21.665 C46.0040008,21.3949986 46.082,21.0680019 46.082,20.684 C46.082,20.2999981 46.0010008,19.9790013 45.839,19.721 C45.6769992,19.4629987 45.4580014,19.2440009 45.182,19.064 C44.9059986,18.8839991 44.5850018,18.7310006 44.219,18.605 C43.8529982,18.4789994 43.466002,18.3500007 43.058,18.218 C42.649998,18.0979994 42.248002,17.9510009 41.852,17.777 C41.455998,17.6029991 41.1020016,17.3810013 40.79,17.111 C40.4779984,16.8409986 40.226001,16.508002 40.034,16.112 C39.841999,15.715998 39.746,15.2240029 39.746,14.636 C39.746,13.9999968 39.8749987,13.4540023 40.133,12.998 C40.3910013,12.5419977 40.7269979,12.1640015 41.141,11.864 C41.5550021,11.5639985 42.0229974,11.3450007 42.545,11.207 C43.0670026,11.0689993 43.5919974,11 44.12,11 C44.8640037,11 45.5599968,11.1319987 46.208,11.396 C46.8560032,11.6600013 47.377998,12.0139978 47.774,12.458 L46.514,13.682 Z M55.442,24.068 L53.462,24.068 L58.988,11.324 L60.608,11.324 L66.08,24.068 L64.064,24.068 L62.768,20.936 L56.72,20.936 L55.442,24.068 Z M57.35,19.37 L62.12,19.37 L59.744,13.394 L57.35,19.37 Z M74.306,21.116 L74.342,21.116 L78.104,11.324 L80.876,11.324 L80.876,24.068 L79.094,24.068 L79.094,13.412 L79.058,13.412 L74.828,24.068 L73.694,24.068 L69.482,13.412 L69.446,13.412 L69.446,24.068 L67.718,24.068 L67.718,11.324 L70.49,11.324 L74.306,21.116 Z M85.754,24.068 L83.972,24.068 L83.972,11.324 L85.754,11.324 L85.754,24.068 Z M95.186,13.682 C94.9339987,13.3339983 94.5920022,13.0490011 94.16,12.827 C93.7279978,12.6049989 93.2420027,12.494 92.702,12.494 C92.4139986,12.494 92.1230015,12.5329996 91.829,12.611 C91.5349985,12.6890004 91.2680012,12.8149991 91.028,12.989 C90.7879988,13.1630009 90.5930007,13.3789987 90.443,13.637 C90.2929992,13.8950013 90.218,14.2039982 90.218,14.564 C90.218,14.9120017 90.2869993,15.2029988 90.425,15.437 C90.5630007,15.6710012 90.7489988,15.8689992 90.983,16.031 C91.2170012,16.1930008 91.4929984,16.3309994 91.811,16.445 C92.1290016,16.5590006 92.4679982,16.6759994 92.828,16.796 C93.2600022,16.9280007 93.6979978,17.0779992 94.142,17.246 C94.5860022,17.4140008 94.9879982,17.6359986 95.348,17.912 C95.7080018,18.1880014 96.0019989,18.5329979 96.23,18.947 C96.4580011,19.3610021 96.572,19.8859968 96.572,20.522 C96.572,21.1820033 96.4490012,21.7549976 96.203,22.241 C95.9569988,22.7270024 95.630002,23.1289984 95.222,23.447 C94.813998,23.7650016 94.3430027,24.0019992 93.809,24.158 C93.2749973,24.3140008 92.7260028,24.392 92.162,24.392 C91.357996,24.392 90.5810037,24.2360016 89.831,23.924 C89.0809962,23.6119984 88.4600025,23.1500031 87.968,22.538 L89.354,21.368 C89.6540015,21.8120022 90.0559975,22.1719986 90.56,22.448 C91.0640025,22.7240014 91.6099971,22.862 92.198,22.862 C92.4980015,22.862 92.7979985,22.8200004 93.098,22.736 C93.3980015,22.6519996 93.6709988,22.5200009 93.917,22.34 C94.1630012,22.1599991 94.3639992,21.9350013 94.52,21.665 C94.6760008,21.3949986 94.754,21.0680019 94.754,20.684 C94.754,20.2999981 94.6730008,19.9790013 94.511,19.721 C94.3489992,19.4629987 94.1300014,19.2440009 93.854,19.064 C93.5779986,18.8839991 93.2570018,18.7310006 92.891,18.605 C92.5249982,18.4789994 92.138002,18.3500007 91.73,18.218 C91.321998,18.0979994 90.920002,17.9510009 90.524,17.777 C90.127998,17.6029991 89.7740016,17.3810013 89.462,17.111 C89.1499984,16.8409986 88.898001,16.508002 88.706,16.112 C88.513999,15.715998 88.418,15.2240029 88.418,14.636 C88.418,13.9999968 88.5469987,13.4540023 88.805,12.998 C89.0630013,12.5419977 89.3989979,12.1640015 89.813,11.864 C90.2270021,11.5639985 90.6949974,11.3450007 91.217,11.207 C91.7390026,11.0689993 92.2639974,11 92.792,11 C93.5360037,11 94.2319968,11.1319987 94.88,11.396 C95.5280032,11.6600013 96.049998,12.0139978 96.446,12.458 L95.186,13.682 Z M105.374,22.484 L111.062,22.484 L111.062,24.068 L103.592,24.068 L103.592,11.324 L105.374,11.324 L105.374,22.484 Z M114.572,22.484 L121.232,22.484 L121.232,24.068 L112.79,24.068 L112.79,11.324 L120.962,11.324 L120.962,12.89 L114.572,12.89 L114.572,16.706 L120.584,16.706 L120.584,18.236 L114.572,18.236 L114.572,22.484 Z M129.944,13.682 C129.691999,13.3339983 129.350002,13.0490011 128.918,12.827 C128.485998,12.6049989 128.000003,12.494 127.46,12.494 C127.171999,12.494 126.881001,12.5329996 126.587,12.611 C126.292999,12.6890004 126.026001,12.8149991 125.786,12.989 C125.545999,13.1630009 125.351001,13.3789987 125.201,13.637 C125.050999,13.8950013 124.976,14.2039982 124.976,14.564 C124.976,14.9120017 125.044999,15.2029988 125.183,15.437 C125.321001,15.6710012 125.506999,15.8689992 125.741,16.031 C125.975001,16.1930008 126.250998,16.3309994 126.569,16.445 C126.887002,16.5590006 127.225998,16.6759994 127.586,16.796 C128.018002,16.9280007 128.455998,17.0779992 128.9,17.246 C129.344002,17.4140008 129.745998,17.6359986 130.106,17.912 C130.466002,18.1880014 130.759999,18.5329979 130.988,18.947 C131.216001,19.3610021 131.33,19.8859968 131.33,20.522 C131.33,21.1820033 131.207001,21.7549976 130.961,22.241 C130.714999,22.7270024 130.388002,23.1289984 129.98,23.447 C129.571998,23.7650016 129.101003,24.0019992 128.567,24.158 C128.032997,24.3140008 127.484003,24.392 126.92,24.392 C126.115996,24.392 125.339004,24.2360016 124.589,23.924 C123.838996,23.6119984 123.218002,23.1500031 122.726,22.538 L124.112,21.368 C124.412002,21.8120022 124.813997,22.1719986 125.318,22.448 C125.822003,22.7240014 126.367997,22.862 126.956,22.862 C127.256001,22.862 127.555999,22.8200004 127.856,22.736 C128.156002,22.6519996 128.428999,22.5200009 128.675,22.34 C128.921001,22.1599991 129.121999,21.9350013 129.278,21.665 C129.434001,21.3949986 129.512,21.0680019 129.512,20.684 C129.512,20.2999981 129.431001,19.9790013 129.269,19.721 C129.106999,19.4629987 128.888001,19.2440009 128.612,19.064 C128.335999,18.8839991 128.015002,18.7310006 127.649,18.605 C127.282998,18.4789994 126.896002,18.3500007 126.488,18.218 C126.079998,18.0979994 125.678002,17.9510009 125.282,17.777 C124.885998,17.6029991 124.532002,17.3810013 124.22,17.111 C123.907998,16.8409986 123.656001,16.508002 123.464,16.112 C123.271999,15.715998 123.176,15.2240029 123.176,14.636 C123.176,13.9999968 123.304999,13.4540023 123.563,12.998 C123.821001,12.5419977 124.156998,12.1640015 124.571,11.864 C124.985002,11.5639985 125.452997,11.3450007 125.975,11.207 C126.497003,11.0689993 127.021997,11 127.55,11 C128.294004,11 128.989997,11.1319987 129.638,11.396 C130.286003,11.6600013 130.807998,12.0139978 131.204,12.458 L129.944,13.682 Z" id="NOS-AMIS-LES" fill="#FFFFFF"></path>
            <path d="M44.878,36.66 C44.878,37.668005 44.7040017,38.5889958 44.356,39.423 C44.0079983,40.2570042 43.5250031,40.970997 42.907,41.565 C42.2889969,42.159003 41.5540043,42.6179984 40.702,42.942 C39.8499957,43.2660016 38.926005,43.428 37.93,43.428 C36.933995,43.428 36.0130042,43.2660016 35.167,42.942 C34.3209958,42.6179984 33.5890031,42.159003 32.971,41.565 C32.3529969,40.970997 31.8700017,40.2570042 31.522,39.423 C31.1739983,38.5889958 31,37.668005 31,36.66 C31,35.6399949 31.1739983,34.7190041 31.522,33.897 C31.8700017,33.0749959 32.3529969,32.3760029 32.971,31.8 C33.5890031,31.2239971 34.3209958,30.7800016 35.167,30.468 C36.0130042,30.1559984 36.933995,30 37.93,30 C38.926005,30 39.8499957,30.1559984 40.702,30.468 C41.5540043,30.7800016 42.2889969,31.2239971 42.907,31.8 C43.5250031,32.3760029 44.0079983,33.0749959 44.356,33.897 C44.7040017,34.7190041 44.878,35.6399949 44.878,36.66 L44.878,36.66 Z M41.584,36.66 C41.584,36.1079972 41.4940009,35.5920024 41.314,35.112 C41.1339991,34.6319976 40.8850016,34.2210017 40.567,33.879 C40.2489984,33.5369983 39.8650022,33.267001 39.415,33.069 C38.9649977,32.870999 38.4700027,32.772 37.93,32.772 C37.3899973,32.772 36.8980022,32.870999 36.454,33.069 C36.0099978,33.267001 35.6260016,33.5369983 35.302,33.879 C34.9779984,34.2210017 34.7290009,34.6319976 34.555,35.112 C34.3809991,35.5920024 34.294,36.1079972 34.294,36.66 C34.294,37.2360029 34.3839991,37.7669976 34.564,38.253 C34.7440009,38.7390024 34.9929984,39.1559983 35.311,39.504 C35.6290016,39.8520017 36.0099978,40.124999 36.454,40.323 C36.8980022,40.521001 37.3899973,40.62 37.93,40.62 C38.4700027,40.62 38.9619978,40.521001 39.406,40.323 C39.8500022,40.124999 40.2339984,39.8520017 40.558,39.504 C40.8820016,39.1559983 41.1339991,38.7390024 41.314,38.253 C41.4940009,37.7669976 41.584,37.2360029 41.584,36.66 L41.584,36.66 Z M46.912,43.086 L46.912,30.342 L50.008,30.342 L50.008,43.086 L46.912,43.086 Z M59.368,33.654 C59.1039987,33.3179983 58.7590021,33.051001 58.333,32.853 C57.9069979,32.654999 57.496002,32.556 57.1,32.556 C56.895999,32.556 56.689001,32.5739998 56.479,32.61 C56.2689989,32.6460002 56.0800008,32.7149995 55.912,32.817 C55.7439992,32.9190005 55.6030006,33.0509992 55.489,33.213 C55.3749994,33.3750008 55.318,33.5819987 55.318,33.834 C55.318,34.0500011 55.3629995,34.2299993 55.453,34.374 C55.5430004,34.5180007 55.6749991,34.6439995 55.849,34.752 C56.0230009,34.8600005 56.2299988,34.9589996 56.47,35.049 C56.7100012,35.1390005 56.9799985,35.2319995 57.28,35.328 C57.7120022,35.4720007 58.1619977,35.6309991 58.63,35.805 C59.0980023,35.9790009 59.5239981,36.2099986 59.908,36.498 C60.2920019,36.7860014 60.6099987,37.1429979 60.862,37.569 C61.1140013,37.9950021 61.24,38.5259968 61.24,39.162 C61.24,39.8940037 61.1050013,40.5269973 60.835,41.061 C60.5649986,41.5950027 60.2020023,42.0359983 59.746,42.384 C59.2899977,42.7320017 58.7680029,42.9899992 58.18,43.158 C57.5919971,43.3260008 56.9860031,43.41 56.362,43.41 C55.4499954,43.41 54.5680043,43.2510016 53.716,42.933 C52.8639957,42.6149984 52.1560028,42.1620029 51.592,41.574 L53.608,39.522 C53.9200016,39.9060019 54.3309974,40.2269987 54.841,40.485 C55.3510025,40.7430013 55.8579975,40.872 56.362,40.872 C56.5900011,40.872 56.8119989,40.8480002 57.028,40.8 C57.2440011,40.7519998 57.4329992,40.6740005 57.595,40.566 C57.7570008,40.4579995 57.8859995,40.3140009 57.982,40.134 C58.0780005,39.9539991 58.126,39.7380013 58.126,39.486 C58.126,39.2459988 58.0660006,39.0420008 57.946,38.874 C57.8259994,38.7059992 57.6550011,38.5530007 57.433,38.415 C57.2109989,38.2769993 56.9350016,38.1510006 56.605,38.037 C56.2749983,37.9229994 55.9000021,37.8000007 55.48,37.668 C55.071998,37.5359993 54.6730019,37.3800009 54.283,37.2 C53.892998,37.0199991 53.5450015,36.7890014 53.239,36.507 C52.9329985,36.2249986 52.6870009,35.883002 52.501,35.481 C52.3149991,35.078998 52.222,34.5900029 52.222,34.014 C52.222,33.3059965 52.3659986,32.7000025 52.654,32.196 C52.9420014,31.6919975 53.3199977,31.2780016 53.788,30.954 C54.2560023,30.6299984 54.7839971,30.3930008 55.372,30.243 C55.9600029,30.0929993 56.553997,30.018 57.154,30.018 C57.8740036,30.018 58.6089962,30.1499987 59.359,30.414 C60.1090037,30.6780013 60.7659972,31.0679974 61.33,31.584 L59.368,33.654 Z M63.274,43.086 L63.274,30.342 L71.842,30.342 L71.842,32.952 L66.244,32.952 L66.244,35.346 L71.536,35.346 L71.536,37.812 L66.244,37.812 L66.244,40.458 L72.166,40.458 L72.166,43.086 L63.274,43.086 Z M82.84,43.086 L81.85,40.584 L76.918,40.584 L75.982,43.086 L72.634,43.086 L77.98,30.342 L80.968,30.342 L86.26,43.086 L82.84,43.086 Z M79.42,33.744 L77.8,38.118 L81.004,38.118 L79.42,33.744 Z M98.122,38.28 C98.122,39.0480038 97.9930013,39.7469968 97.735,40.377 C97.4769987,41.0070031 97.1080024,41.5469977 96.628,41.997 C96.1479976,42.4470022 95.5690034,42.7979987 94.891,43.05 C94.2129966,43.3020013 93.4600041,43.428 92.632,43.428 C91.7919958,43.428 91.0360034,43.3020013 90.364,43.05 C89.6919966,42.7979987 89.1220023,42.4470022 88.654,41.997 C88.1859977,41.5469977 87.8260013,41.0070031 87.574,40.377 C87.3219987,39.7469968 87.196,39.0480038 87.196,38.28 L87.196,30.342 L90.256,30.342 L90.256,38.028 C90.256,38.3760017 90.3009996,38.7059984 90.391,39.018 C90.4810005,39.3300016 90.6189991,39.6089988 90.805,39.855 C90.9910009,40.1010012 91.2369985,40.2959993 91.543,40.44 C91.8490015,40.5840007 92.2179978,40.656 92.65,40.656 C93.0820022,40.656 93.4509985,40.5840007 93.757,40.44 C94.0630015,40.2959993 94.311999,40.1010012 94.504,39.855 C94.696001,39.6089988 94.8339996,39.3300016 94.918,39.018 C95.0020004,38.7059984 95.044,38.3760017 95.044,38.028 L95.044,30.342 L98.122,30.342 L98.122,38.28 Z M108.292,43.086 L105.502,38.586 L102.82,43.086 L99.148,43.086 L103.612,36.354 L99.508,30.342 L103.216,30.342 L105.592,34.302 L107.932,30.342 L111.514,30.342 L107.482,36.354 L112.09,43.086 L108.292,43.086 Z" id="OISEAUX" fill="#FFFFFF"></path>
            <path d="M12,35 L25.5,35" id="Line" stroke="#FFFFFF" stroke-linecap="square" fill="#D8D8D8"></path>
            <path d="M12,32 L25.5,32" id="Line-Copy-4" stroke="#FFFFFF" stroke-linecap="square" fill="#D8D8D8"></path>
            <path d="M12,38 L25.5,38" id="Line-Copy" stroke="#FFFFFF" stroke-linecap="square" fill="#D8D8D8"></path>
            <path d="M12,41 L25.5,41" id="Line-Copy-2" stroke="#FFFFFF" stroke-linecap="square" fill="#D8D8D8"></path>
            <path d="M117,35 L130.5,35" id="Line-Copy-7" stroke="#FFFFFF" stroke-linecap="square" fill="#D8D8D8"></path>
            <path d="M117,32 L130.5,32" id="Line-Copy-6" stroke="#FFFFFF" stroke-linecap="square" fill="#D8D8D8"></path>
            <path d="M117,38 L130.5,38" id="Line-Copy-5" stroke="#FFFFFF" stroke-linecap="square" fill="#D8D8D8"></path>
            <path d="M117,41 L130.5,41" id="Line-Copy-3" stroke="#FFFFFF" stroke-linecap="square" fill="#D8D8D8"></path>
            <use id="Rectangle-1" stroke="#FFFFFF" mask="url(#mask-2)" stroke-width="4" fill-opacity="0" fill="#D8D8D8" xlink:href="#path-1"></use>
        </g>
    </g>
</svg>