<?xml version="1.0" encoding="UTF-8" standalone="no"?>
<svg width="212px" height="136px" viewBox="0 0 212 136" version="1.1" xmlns="http://www.w3.org/2000/svg" xmlns:xlink="http://www.w3.org/1999/xlink" style="background: #689F38;">
    <!-- Generator: Sketch 3.8.3 (29802) - http://www.bohemiancoding.com/sketch -->
    <title>Artboard 2</title>
    <desc>Created with Sketch.</desc>
    <defs>
        <rect id="path-1" x="39" y="46" width="134" height="45"></rect>
        <mask id="mask-2" maskContentUnits="userSpaceOnUse" maskUnits="objectBoundingBox" x="0" y="0" width="134" height="45" fill="white">
            <use xlink:href="#path-1"></use>
        </mask>
    </defs>
    <g id="Page-1" stroke="none" stroke-width="1" fill="none" fill-rule="evenodd">
        <g id="Artboard-2">
            <path d="M53.982,63.512 L54.018,63.512 L54.018,53.324 L55.8,53.324 L55.8,66.068 L53.55,66.068 L46.818,55.664 L46.782,55.664 L46.782,66.068 L45,66.068 L45,53.324 L47.322,53.324 L53.982,63.512 Z M71.748,59.678 C71.748,60.6620049 71.5770017,61.5649959 71.235,62.387 C70.8929983,63.2090041 70.422003,63.916997 69.822,64.511 C69.221997,65.105003 68.5080041,65.5669984 67.68,65.897 C66.8519959,66.2270017 65.9520049,66.392 64.98,66.392 C64.0079951,66.392 63.1110041,66.2270017 62.289,65.897 C61.4669959,65.5669984 60.756003,65.105003 60.156,64.511 C59.555997,63.916997 59.0880017,63.2090041 58.752,62.387 C58.4159983,61.5649959 58.248,60.6620049 58.248,59.678 C58.248,58.681995 58.4159983,57.7730041 58.752,56.951 C59.0880017,56.1289959 59.555997,55.4270029 60.156,54.845 C60.756003,54.2629971 61.4669959,53.8100016 62.289,53.486 C63.1110041,53.1619984 64.0079951,53 64.98,53 C65.9520049,53 66.8519959,53.1619984 67.68,53.486 C68.5080041,53.8100016 69.221997,54.2629971 69.822,54.845 C70.422003,55.4270029 70.8929983,56.1289959 71.235,56.951 C71.5770017,57.7730041 71.748,58.681995 71.748,59.678 L71.748,59.678 Z M69.822,59.678 C69.822,58.9819965 69.7080011,58.3250031 69.48,57.707 C69.2519989,57.0889969 68.9280021,56.5460023 68.508,56.078 C68.0879979,55.6099977 67.581003,55.2410013 66.987,54.971 C66.392997,54.7009986 65.7240037,54.566 64.98,54.566 C64.2479963,54.566 63.585003,54.7009986 62.991,54.971 C62.396997,55.2410013 61.8930021,55.6099977 61.479,56.078 C61.0649979,56.5460023 60.7440011,57.0889969 60.516,57.707 C60.2879989,58.3250031 60.174,58.9819965 60.174,59.678 C60.174,60.3860035 60.2879989,61.0519969 60.516,61.676 C60.7440011,62.3000031 61.0679979,62.8429977 61.488,63.305 C61.9080021,63.7670023 62.4119971,64.1299987 63,64.394 C63.5880029,64.6580013 64.2479963,64.79 64.98,64.79 C65.7120037,64.79 66.377997,64.6580013 66.978,64.394 C67.578003,64.1299987 68.0879979,63.7670023 68.508,63.305 C68.9280021,62.8429977 69.2519989,62.3000031 69.48,61.676 C69.7080011,61.0519969 69.822,60.3860035 69.822,59.678 L69.822,59.678 Z M80.514,55.682 C80.2619987,55.3339983 79.9200022,55.0490011 79.488,54.827 C79.0559978,54.6049989 78.5700027,54.494 78.03,54.494 C77.7419986,54.494 77.4510015,54.5329996 77.157,54.611 C76.8629985,54.6890004 76.5960012,54.8149991 76.356,54.989 C76.1159988,55.1630009 75.9210007,55.3789987 75.771,55.637 C75.6209992,55.8950013 75.546,56.2039982 75.546,56.564 C75.546,56.9120017 75.6149993,57.2029988 75.753,57.437 C75.8910007,57.6710012 76.0769988,57.8689992 76.311,58.031 C76.5450012,58.1930008 76.8209984,58.3309994 77.139,58.445 C77.4570016,58.5590006 77.7959982,58.6759994 78.156,58.796 C78.5880022,58.9280007 79.0259978,59.0779992 79.47,59.246 C79.9140022,59.4140008 80.3159982,59.6359986 80.676,59.912 C81.0360018,60.1880014 81.3299989,60.5329979 81.558,60.947 C81.7860011,61.3610021 81.9,61.8859968 81.9,62.522 C81.9,63.1820033 81.7770012,63.7549976 81.531,64.241 C81.2849988,64.7270024 80.958002,65.1289984 80.55,65.447 C80.141998,65.7650016 79.6710027,66.0019992 79.137,66.158 C78.6029973,66.3140008 78.0540028,66.392 77.49,66.392 C76.685996,66.392 75.9090037,66.2360016 75.159,65.924 C74.4089963,65.6119984 73.7880025,65.1500031 73.296,64.538 L74.682,63.368 C74.9820015,63.8120022 75.3839975,64.1719986 75.888,64.448 C76.3920025,64.7240014 76.9379971,64.862 77.526,64.862 C77.8260015,64.862 78.1259985,64.8200004 78.426,64.736 C78.7260015,64.6519996 78.9989988,64.5200009 79.245,64.34 C79.4910012,64.1599991 79.6919992,63.9350013 79.848,63.665 C80.0040008,63.3949986 80.082,63.0680019 80.082,62.684 C80.082,62.2999981 80.0010008,61.9790013 79.839,61.721 C79.6769992,61.4629987 79.4580014,61.2440009 79.182,61.064 C78.9059986,60.8839991 78.5850018,60.7310006 78.219,60.605 C77.8529982,60.4789994 77.466002,60.3500007 77.058,60.218 C76.649998,60.0979994 76.248002,59.9510009 75.852,59.777 C75.455998,59.6029991 75.1020016,59.3810013 74.79,59.111 C74.4779984,58.8409986 74.226001,58.508002 74.034,58.112 C73.841999,57.715998 73.746,57.2240029 73.746,56.636 C73.746,55.9999968 73.8749987,55.4540023 74.133,54.998 C74.3910013,54.5419977 74.7269979,54.1640015 75.141,53.864 C75.5550021,53.5639985 76.0229974,53.3450007 76.545,53.207 C77.0670026,53.0689993 77.5919974,53 78.12,53 C78.8640037,53 79.5599968,53.1319987 80.208,53.396 C80.8560032,53.6600013 81.377998,54.0139978 81.774,54.458 L80.514,55.682 Z M89.442,66.068 L87.462,66.068 L92.988,53.324 L94.608,53.324 L100.08,66.068 L98.064,66.068 L96.768,62.936 L90.72,62.936 L89.442,66.068 Z M91.35,61.37 L96.12,61.37 L93.744,55.394 L91.35,61.37 Z M108.306,63.116 L108.342,63.116 L112.104,53.324 L114.876,53.324 L114.876,66.068 L113.094,66.068 L113.094,55.412 L113.058,55.412 L108.828,66.068 L107.694,66.068 L103.482,55.412 L103.446,55.412 L103.446,66.068 L101.718,66.068 L101.718,53.324 L104.49,53.324 L108.306,63.116 Z M119.754,66.068 L117.972,66.068 L117.972,53.324 L119.754,53.324 L119.754,66.068 Z M129.186,55.682 C128.933999,55.3339983 128.592002,55.0490011 128.16,54.827 C127.727998,54.6049989 127.242003,54.494 126.702,54.494 C126.413999,54.494 126.123001,54.5329996 125.829,54.611 C125.534999,54.6890004 125.268001,54.8149991 125.028,54.989 C124.787999,55.1630009 124.593001,55.3789987 124.443,55.637 C124.292999,55.8950013 124.218,56.2039982 124.218,56.564 C124.218,56.9120017 124.286999,57.2029988 124.425,57.437 C124.563001,57.6710012 124.748999,57.8689992 124.983,58.031 C125.217001,58.1930008 125.492998,58.3309994 125.811,58.445 C126.129002,58.5590006 126.467998,58.6759994 126.828,58.796 C127.260002,58.9280007 127.697998,59.0779992 128.142,59.246 C128.586002,59.4140008 128.987998,59.6359986 129.348,59.912 C129.708002,60.1880014 130.001999,60.5329979 130.23,60.947 C130.458001,61.3610021 130.572,61.8859968 130.572,62.522 C130.572,63.1820033 130.449001,63.7549976 130.203,64.241 C129.956999,64.7270024 129.630002,65.1289984 129.222,65.447 C128.813998,65.7650016 128.343003,66.0019992 127.809,66.158 C127.274997,66.3140008 126.726003,66.392 126.162,66.392 C125.357996,66.392 124.581004,66.2360016 123.831,65.924 C123.080996,65.6119984 122.460002,65.1500031 121.968,64.538 L123.354,63.368 C123.654001,63.8120022 124.055997,64.1719986 124.56,64.448 C125.064003,64.7240014 125.609997,64.862 126.198,64.862 C126.498002,64.862 126.797998,64.8200004 127.098,64.736 C127.398001,64.6519996 127.670999,64.5200009 127.917,64.34 C128.163001,64.1599991 128.363999,63.9350013 128.52,63.665 C128.676001,63.3949986 128.754,63.0680019 128.754,62.684 C128.754,62.2999981 128.673001,61.9790013 128.511,61.721 C128.348999,61.4629987 128.130001,61.2440009 127.854,61.064 C127.577999,60.8839991 127.257002,60.7310006 126.891,60.605 C126.524998,60.4789994 126.138002,60.3500007 125.73,60.218 C125.321998,60.0979994 124.920002,59.9510009 124.524,59.777 C124.127998,59.6029991 123.774002,59.3810013 123.462,59.111 C123.149998,58.8409986 122.898001,58.508002 122.706,58.112 C122.513999,57.715998 122.418,57.2240029 122.418,56.636 C122.418,55.9999968 122.546999,55.4540023 122.805,54.998 C123.063001,54.5419977 123.398998,54.1640015 123.813,53.864 C124.227002,53.5639985 124.694997,53.3450007 125.217,53.207 C125.739003,53.0689993 126.263997,53 126.792,53 C127.536004,53 128.231997,53.1319987 128.88,53.396 C129.528003,53.6600013 130.049998,54.0139978 130.446,54.458 L129.186,55.682 Z M139.374,64.484 L145.062,64.484 L145.062,66.068 L137.592,66.068 L137.592,53.324 L139.374,53.324 L139.374,64.484 Z M148.572,64.484 L155.232,64.484 L155.232,66.068 L146.79,66.068 L146.79,53.324 L154.962,53.324 L154.962,54.89 L148.572,54.89 L148.572,58.706 L154.584,58.706 L154.584,60.236 L148.572,60.236 L148.572,64.484 Z M163.944,55.682 C163.691999,55.3339983 163.350002,55.0490011 162.918,54.827 C162.485998,54.6049989 162.000003,54.494 161.46,54.494 C161.171999,54.494 160.881001,54.5329996 160.587,54.611 C160.292999,54.6890004 160.026001,54.8149991 159.786,54.989 C159.545999,55.1630009 159.351001,55.3789987 159.201,55.637 C159.050999,55.8950013 158.976,56.2039982 158.976,56.564 C158.976,56.9120017 159.044999,57.2029988 159.183,57.437 C159.321001,57.6710012 159.506999,57.8689992 159.741,58.031 C159.975001,58.1930008 160.250998,58.3309994 160.569,58.445 C160.887002,58.5590006 161.225998,58.6759994 161.586,58.796 C162.018002,58.9280007 162.455998,59.0779992 162.9,59.246 C163.344002,59.4140008 163.745998,59.6359986 164.106,59.912 C164.466002,60.1880014 164.759999,60.5329979 164.988,60.947 C165.216001,61.3610021 165.33,61.8859968 165.33,62.522 C165.33,63.1820033 165.207001,63.7549976 164.961,64.241 C164.714999,64.7270024 164.388002,65.1289984 163.98,65.447 C163.571998,65.7650016 163.101003,66.0019992 162.567,66.158 C162.032997,66.3140008 161.484003,66.392 160.92,66.392 C160.115996,66.392 159.339004,66.2360016 158.589,65.924 C157.838996,65.6119984 157.218002,65.1500031 156.726,64.538 L158.112,63.368 C158.412001,63.8120022 158.813997,64.1719986 159.318,64.448 C159.822003,64.7240014 160.367997,64.862 160.956,64.862 C161.256001,64.862 161.555998,64.8200004 161.856,64.736 C162.156001,64.6519996 162.428999,64.5200009 162.675,64.34 C162.921001,64.1599991 163.121999,63.9350013 163.278,63.665 C163.434001,63.3949986 163.512,63.0680019 163.512,62.684 C163.512,62.2999981 163.431001,61.9790013 163.269,61.721 C163.106999,61.4629987 162.888001,61.2440009 162.612,61.064 C162.335999,60.8839991 162.015002,60.7310006 161.649,60.605 C161.282998,60.4789994 160.896002,60.3500007 160.488,60.218 C160.079998,60.0979994 159.678002,59.9510009 159.282,59.777 C158.885998,59.6029991 158.532002,59.3810013 158.22,59.111 C157.907998,58.8409986 157.656001,58.508002 157.464,58.112 C157.271999,57.715998 157.176,57.2240029 157.176,56.636 C157.176,55.9999968 157.304999,55.4540023 157.563,54.998 C157.821001,54.5419977 158.156998,54.1640015 158.571,53.864 C158.985002,53.5639985 159.452997,53.3450007 159.975,53.207 C160.497003,53.0689993 161.021997,53 161.55,53 C162.294004,53 162.989997,53.1319987 163.638,53.396 C164.286003,53.6600013 164.807998,54.0139978 165.204,54.458 L163.944,55.682 Z" id="NOS-AMIS-LES" fill="#FFFFFF"></path>
            <path d="M78.878,78.66 C78.878,79.668005 78.7040017,80.5889958 78.356,81.423 C78.0079983,82.2570042 77.5250031,82.970997 76.907,83.565 C76.2889969,84.159003 75.5540043,84.6179984 74.702,84.942 C73.8499957,85.2660016 72.926005,85.428 71.93,85.428 C70.933995,85.428 70.0130042,85.2660016 69.167,84.942 C68.3209958,84.6179984 67.5890031,84.159003 66.971,83.565 C66.3529969,82.970997 65.8700017,82.2570042 65.522,81.423 C65.1739983,80.5889958 65,79.668005 65,78.66 C65,77.6399949 65.1739983,76.7190041 65.522,75.897 C65.8700017,75.0749959 66.3529969,74.3760029 66.971,73.8 C67.5890031,73.2239971 68.3209958,72.7800016 69.167,72.468 C70.0130042,72.1559984 70.933995,72 71.93,72 C72.926005,72 73.8499957,72.1559984 74.702,72.468 C75.5540043,72.7800016 76.2889969,73.2239971 76.907,73.8 C77.5250031,74.3760029 78.0079983,75.0749959 78.356,75.897 C78.7040017,76.7190041 78.878,77.6399949 78.878,78.66 L78.878,78.66 Z M75.584,78.66 C75.584,78.1079972 75.4940009,77.5920024 75.314,77.112 C75.1339991,76.6319976 74.8850016,76.2210017 74.567,75.879 C74.2489984,75.5369983 73.8650023,75.267001 73.415,75.069 C72.9649978,74.870999 72.4700027,74.772 71.93,74.772 C71.3899973,74.772 70.8980022,74.870999 70.454,75.069 C70.0099978,75.267001 69.6260016,75.5369983 69.302,75.879 C68.9779984,76.2210017 68.7290009,76.6319976 68.555,77.112 C68.3809991,77.5920024 68.294,78.1079972 68.294,78.66 C68.294,79.2360029 68.3839991,79.7669976 68.564,80.253 C68.7440009,80.7390024 68.9929984,81.1559983 69.311,81.504 C69.6290016,81.8520017 70.0099978,82.124999 70.454,82.323 C70.8980022,82.521001 71.3899973,82.62 71.93,82.62 C72.4700027,82.62 72.9619978,82.521001 73.406,82.323 C73.8500022,82.124999 74.2339984,81.8520017 74.558,81.504 C74.8820016,81.1559983 75.1339991,80.7390024 75.314,80.253 C75.4940009,79.7669976 75.584,79.2360029 75.584,78.66 L75.584,78.66 Z M80.912,85.086 L80.912,72.342 L84.008,72.342 L84.008,85.086 L80.912,85.086 Z M93.368,75.654 C93.1039987,75.3179983 92.7590021,75.051001 92.333,74.853 C91.9069979,74.654999 91.496002,74.556 91.1,74.556 C90.895999,74.556 90.6890011,74.5739998 90.479,74.61 C90.2689989,74.6460002 90.0800008,74.7149995 89.912,74.817 C89.7439992,74.9190005 89.6030006,75.0509992 89.489,75.213 C89.3749994,75.3750008 89.318,75.5819987 89.318,75.834 C89.318,76.0500011 89.3629995,76.2299993 89.453,76.374 C89.5430004,76.5180007 89.6749991,76.6439995 89.849,76.752 C90.0230009,76.8600005 90.2299988,76.9589996 90.47,77.049 C90.7100012,77.1390004 90.9799985,77.2319995 91.28,77.328 C91.7120022,77.4720007 92.1619977,77.6309991 92.63,77.805 C93.0980023,77.9790009 93.5239981,78.2099986 93.908,78.498 C94.2920019,78.7860014 94.6099987,79.1429979 94.862,79.569 C95.1140013,79.9950021 95.24,80.5259968 95.24,81.162 C95.24,81.8940037 95.1050013,82.5269973 94.835,83.061 C94.5649986,83.5950027 94.2020023,84.0359983 93.746,84.384 C93.2899977,84.7320017 92.7680029,84.9899992 92.18,85.158 C91.5919971,85.3260008 90.9860031,85.41 90.362,85.41 C89.4499954,85.41 88.5680043,85.2510016 87.716,84.933 C86.8639957,84.6149984 86.1560028,84.1620029 85.592,83.574 L87.608,81.522 C87.9200016,81.9060019 88.3309974,82.2269987 88.841,82.485 C89.3510026,82.7430013 89.8579975,82.872 90.362,82.872 C90.5900011,82.872 90.8119989,82.8480002 91.028,82.8 C91.2440011,82.7519998 91.4329992,82.6740005 91.595,82.566 C91.7570008,82.4579995 91.8859995,82.3140009 91.982,82.134 C92.0780005,81.9539991 92.126,81.7380013 92.126,81.486 C92.126,81.2459988 92.0660006,81.0420008 91.946,80.874 C91.8259994,80.7059992 91.6550011,80.5530007 91.433,80.415 C91.2109989,80.2769993 90.9350017,80.1510006 90.605,80.037 C90.2749984,79.9229994 89.9000021,79.8000007 89.48,79.668 C89.071998,79.5359993 88.6730019,79.3800009 88.283,79.2 C87.892998,79.0199991 87.5450015,78.7890014 87.239,78.507 C86.9329985,78.2249986 86.6870009,77.883002 86.501,77.481 C86.3149991,77.078998 86.222,76.5900029 86.222,76.014 C86.222,75.3059965 86.3659986,74.7000025 86.654,74.196 C86.9420014,73.6919975 87.3199977,73.2780016 87.788,72.954 C88.2560023,72.6299984 88.7839971,72.3930007 89.372,72.243 C89.9600029,72.0929992 90.553997,72.018 91.154,72.018 C91.8740036,72.018 92.6089962,72.1499987 93.359,72.414 C94.1090037,72.6780013 94.7659972,73.0679974 95.33,73.584 L93.368,75.654 Z M97.274,85.086 L97.274,72.342 L105.842,72.342 L105.842,74.952 L100.244,74.952 L100.244,77.346 L105.536,77.346 L105.536,79.812 L100.244,79.812 L100.244,82.458 L106.166,82.458 L106.166,85.086 L97.274,85.086 Z M116.84,85.086 L115.85,82.584 L110.918,82.584 L109.982,85.086 L106.634,85.086 L111.98,72.342 L114.968,72.342 L120.26,85.086 L116.84,85.086 Z M113.42,75.744 L111.8,80.118 L115.004,80.118 L113.42,75.744 Z M132.122,80.28 C132.122,81.0480038 131.993001,81.7469969 131.735,82.377 C131.476999,83.0070032 131.108002,83.5469978 130.628,83.997 C130.147998,84.4470022 129.569003,84.7979987 128.891,85.05 C128.212997,85.3020013 127.460004,85.428 126.632,85.428 C125.791996,85.428 125.036003,85.3020013 124.364,85.05 C123.691997,84.7979987 123.122002,84.4470022 122.654,83.997 C122.185998,83.5469978 121.826001,83.0070032 121.574,82.377 C121.321999,81.7469969 121.196,81.0480038 121.196,80.28 L121.196,72.342 L124.256,72.342 L124.256,80.028 C124.256,80.3760017 124.301,80.7059984 124.391,81.018 C124.481,81.3300016 124.618999,81.6089988 124.805,81.855 C124.991001,82.1010012 125.236998,82.2959993 125.543,82.44 C125.849002,82.5840007 126.217998,82.656 126.65,82.656 C127.082002,82.656 127.450998,82.5840007 127.757,82.44 C128.063002,82.2959993 128.311999,82.1010012 128.504,81.855 C128.696001,81.6089988 128.834,81.3300016 128.918,81.018 C129.002,80.7059984 129.044,80.3760017 129.044,80.028 L129.044,72.342 L132.122,72.342 L132.122,80.28 Z M142.292,85.086 L139.502,80.586 L136.82,85.086 L133.148,85.086 L137.612,78.354 L133.508,72.342 L137.216,72.342 L139.592,76.302 L141.932,72.342 L145.514,72.342 L141.482,78.354 L146.09,85.086 L142.292,85.086 Z" id="OISEAUX" fill="#FFFFFF"></path>
            <path d="M46,77 L59.5,77" id="Line" stroke="#FFFFFF" stroke-linecap="square" fill="#D8D8D8"></path>
            <path d="M46,74 L59.5,74" id="Line-Copy-4" stroke="#FFFFFF" stroke-linecap="square" fill="#D8D8D8"></path>
            <path d="M46,80 L59.5,80" id="Line-Copy" stroke="#FFFFFF" stroke-linecap="square" fill="#D8D8D8"></path>
            <path d="M46,83 L59.5,83" id="Line-Copy-2" stroke="#FFFFFF" stroke-linecap="square" fill="#D8D8D8"></path>
            <path d="M151,77 L164.5,77" id="Line-Copy-7" stroke="#FFFFFF" stroke-linecap="square" fill="#D8D8D8"></path>
            <path d="M151,74 L164.5,74" id="Line-Copy-6" stroke="#FFFFFF" stroke-linecap="square" fill="#D8D8D8"></path>
            <path d="M151,80 L164.5,80" id="Line-Copy-5" stroke="#FFFFFF" stroke-linecap="square" fill="#D8D8D8"></path>
            <path d="M151,83 L164.5,83" id="Line-Copy-3" stroke="#FFFFFF" stroke-linecap="square" fill="#D8D8D8"></path>
            <use id="Rectangle-1" stroke="#FFFFFF" mask="url(#mask-2)" stroke-width="2" fill-opacity="0" fill="#D8D8D8" xlink:href="#path-1"></use>
        </g>
    </g>
</svg>